<svg width="40" height="40" viewBox="0 0 40 40" fill="none" xmlns="http://www.w3.org/2000/svg">
<rect width="40" height="40" rx="20" fill="#A19100"/>
<path d="M20.1 29C19.8167 29 19.5793 28.904 19.388 28.712C19.1967 28.52 19.1007 28.2827 19.1 28C19.1 27.8833 19.125 27.7623 19.175 27.637C19.225 27.5117 19.3 27.3993 19.4 27.3L24.025 22.675L23.3 21.95L18.7 26.575C18.6 26.675 18.4917 26.75 18.375 26.8C18.2583 26.85 18.1333 26.875 18 26.875C17.7167 26.875 17.4793 26.7793 17.288 26.588C17.0967 26.3967 17.0007 26.159 17 25.875C17 25.7083 17.025 25.5707 17.075 25.462C17.125 25.3533 17.1917 25.2577 17.275 25.175L21.9 20.55L21.2 19.85L16.575 24.45C16.475 24.55 16.3667 24.625 16.25 24.675C16.1333 24.725 16 24.75 15.85 24.75C15.5833 24.75 15.35 24.65 15.15 24.45C14.95 24.25 14.85 24.0167 14.85 23.75C14.85 23.6167 14.875 23.4917 14.925 23.375C14.975 23.2583 15.05 23.15 15.15 23.05L19.775 18.425L19.05 17.725L14.45 22.35C14.3667 22.4333 14.2667 22.5 14.15 22.55C14.0333 22.6 13.8917 22.625 13.725 22.625C13.4417 22.625 13.204 22.529 13.012 22.337C12.82 22.145 12.7243 21.9077 12.725 21.625C12.725 21.4917 12.75 21.3667 12.8 21.25C12.85 21.1333 12.925 21.025 13.025 20.925L18.6 15.35L22.35 19.125C22.5333 19.3083 22.75 19.4543 23 19.563C23.25 19.6717 23.5 19.7257 23.75 19.725C24.2833 19.725 24.75 19.5377 25.15 19.163C25.55 18.7883 25.75 18.309 25.75 17.725C25.75 17.4917 25.7083 17.25 25.625 17C25.5417 16.75 25.3917 16.5167 25.175 16.3L20.7 11.825C20.9833 11.5583 21.3 11.3543 21.65 11.213C22 11.0717 22.35 11.0007 22.7 11C23.1333 11 23.5333 11.071 23.9 11.213C24.2667 11.355 24.6 11.5757 24.9 11.875L29.125 16.125C29.425 16.425 29.646 16.7583 29.788 17.125C29.93 17.4917 30.0007 17.9167 30 18.4C30 18.7333 29.925 19.071 29.775 19.413C29.625 19.755 29.4083 20.0673 29.125 20.35L20.8 28.7C20.6667 28.8333 20.55 28.9167 20.45 28.95C20.35 28.9833 20.2333 29 20.1 29ZM11.525 21L10.875 20.35C10.5917 20.0833 10.375 19.7667 10.225 19.4C10.075 19.0333 10 18.65 10 18.25C10 17.8167 10.0833 17.4167 10.25 17.05C10.4167 16.6833 10.625 16.375 10.875 16.125L15.1 11.875C15.3667 11.6083 15.6833 11.3957 16.05 11.237C16.4167 11.0783 16.775 10.9993 17.125 11C17.575 11 17.975 11.0627 18.325 11.188C18.675 11.3133 19.0167 11.5423 19.35 11.875L24.475 17C24.575 17.1 24.65 17.2083 24.7 17.325C24.75 17.4417 24.775 17.5667 24.775 17.7C24.775 17.9667 24.675 18.2 24.475 18.4C24.275 18.6 24.0417 18.7 23.775 18.7C23.625 18.7 23.5 18.6793 23.4 18.638C23.3 18.5967 23.1917 18.5173 23.075 18.4L18.575 13.95L11.525 21Z" fill="white"/>
</svg>
